<svg width="24" height="24" viewBox="0 0 24 24" fill="none" xmlns="http://www.w3.org/2000/svg">
<path d="M22.84 12.1568C22.84 6.21324 18.0213 1.39453 12.0777 1.39453C6.13414 1.39453 1.31543 6.21324 1.31543 12.1568C1.31543 18.1004 6.13414 22.9191 12.0777 22.9191C18.0213 22.9191 22.84 18.1004 22.84 12.1568Z" stroke="#CDA274" stroke-width="2.04996" stroke-miterlimit="10"/>
<path d="M22.2741 7.88367C21.4412 7.88888 21.5231 9.43443 20.4855 8.70521C20.1002 8.43501 19.8632 8.04224 19.3793 7.92279C18.9567 7.81846 18.5237 7.92696 18.1062 7.99946C17.6317 8.08188 17.0691 8.11891 16.7092 8.48039C16.3612 8.82831 16.1771 9.29516 15.8069 9.64516C15.0907 10.3233 14.7884 11.0634 15.252 12.0222C15.698 12.9439 16.6309 13.4441 17.6374 13.3784C18.6264 13.3121 19.6537 12.7352 19.6252 14.1806C19.6148 14.6918 19.7211 15.0465 19.8772 15.5217C20.0219 15.9598 20.012 16.3844 20.0452 16.8367C20.1064 17.6817 20.2609 18.6289 20.6779 19.3754L21.4557 18.2716C21.5517 18.135 21.7524 17.9435 21.8001 17.7824C21.8846 17.497 21.7181 17.0067 21.6989 16.687C21.6798 16.3672 21.6891 16.0433 21.6404 15.7235C21.5719 15.2755 21.3085 14.8556 21.2722 14.4127C21.2053 13.5881 21.3551 12.9298 20.7235 12.2402C20.1137 11.5751 19.2196 11.4155 18.3655 11.5506C17.9351 11.6184 16.2025 11.897 16.8979 10.9075C17.0354 10.7129 17.2755 10.5533 17.43 10.3681C17.5643 10.2069 17.681 9.91066 17.8386 9.78495C17.9963 9.65925 18.7202 9.51476 18.9277 9.57892C19.1351 9.64307 19.3513 9.94405 19.5313 10.0776C19.8638 10.3295 20.2517 10.497 20.6623 10.5658C21.3707 10.6701 22.8517 10.256 22.8403 9.3421C22.8383 8.90395 22.4338 8.29366 22.2741 7.88367ZM14.0743 15.4033C13.7979 14.2328 12.2167 13.8416 11.3642 13.2068C10.8741 12.8416 10.438 12.2778 9.79446 12.2319C9.49783 12.2105 9.24943 12.2751 8.9554 12.1985C8.68573 12.1286 8.47415 11.9825 8.18686 12.0206C7.65013 12.0915 7.3115 12.6684 6.73484 12.5902C6.18774 12.5161 5.62404 11.8725 5.49959 11.3482C5.33986 10.6743 5.86985 10.4558 6.4377 10.3958C6.67469 10.3707 6.94072 10.3436 7.16837 10.4307C7.46811 10.5429 7.60968 10.8381 7.87883 10.9873C8.3834 11.2653 8.48556 10.8209 8.40829 10.3702C8.29265 9.69524 8.15782 9.41982 8.75626 8.95559C9.17112 8.63531 9.52583 8.40372 9.45945 7.82837C9.42004 7.49037 9.23595 7.33753 9.4076 7.00109C9.53776 6.74498 9.89506 6.5139 10.1279 6.36107C10.7289 5.96673 12.7026 5.99594 11.8963 4.8922C11.6593 4.56828 11.2221 3.98928 10.8072 3.91C10.2887 3.81141 10.0584 4.39354 9.69696 4.65017C9.32359 4.91567 8.59654 5.21717 8.22264 4.80665C7.71962 4.25426 8.55609 4.07274 8.74122 3.68727C8.92635 3.30179 8.31236 2.5731 7.98358 2.38844L6.4377 4.13221C6.39329 4.42424 6.40875 4.72232 6.48312 5.00812C6.5575 5.29391 6.68922 5.56138 6.87019 5.79407C7.17771 6.19207 7.66725 6.31986 7.68954 6.86339C7.71132 7.385 7.63043 7.65207 7.29128 8.01876C7.14452 8.17525 7.0408 8.39746 6.89145 8.54403C6.70839 8.72295 6.77633 8.66818 6.49059 8.71721C5.95334 8.80849 5.49596 8.94933 4.97686 9.09329C4.11187 9.33376 4.03201 7.91235 3.63789 7.35475L2.34144 8.40789C2.32744 8.58054 2.55406 8.89821 2.61577 9.08599C2.96996 10.159 3.68456 10.9888 4.1461 12.0154C4.632 13.1024 5.93675 12.8009 6.51289 13.7534C7.02421 14.5984 6.47814 15.6683 6.86086 16.5529C7.13881 17.195 7.7943 17.3353 8.2465 17.8048C8.70855 18.2789 8.6987 18.9278 8.76922 19.5449C8.84876 20.2707 8.97785 20.9902 9.15557 21.6981C9.21831 21.9428 9.27588 22.2662 9.44234 22.468C9.55643 22.6068 9.94795 22.7262 9.78979 22.7721C10.0107 22.8087 10.4043 23.0163 10.5884 22.8639C10.8311 22.6636 10.7663 22.0471 10.8083 21.7686C10.9343 20.9392 11.3471 20.1281 11.904 19.5073C12.4542 18.895 13.2083 18.4803 13.6729 17.786C14.1256 17.109 14.262 16.1956 14.0743 15.4033ZM12.3428 16.7762C12.0316 17.3348 11.3388 17.7088 10.8933 18.1527C10.7725 18.2732 10.5153 18.6905 10.3639 18.6003C10.2555 18.5356 10.2187 17.9941 10.1787 17.87C9.97273 17.2449 9.57946 16.6992 9.05289 16.3078C8.89057 16.1841 8.48816 16.0235 8.39533 15.854C8.29161 15.6698 8.38496 15.2353 8.38859 15.035C8.39429 14.7429 8.26205 14.2573 8.33362 13.9918C8.41659 13.6856 8.25687 13.8702 8.52912 13.8097C8.67277 13.7774 9.26602 13.8822 9.44493 13.9198C9.72911 13.9793 9.88573 14.1571 10.1098 14.3371C10.6989 14.8123 11.3476 15.18 12.0077 15.5441C12.5191 15.8289 12.6695 16.1894 12.3428 16.7762ZM8.73344 2.40409C8.97925 2.6456 9.21054 2.93145 9.57717 2.95544C9.9241 2.97891 10.2513 2.79009 10.5542 3.02742C10.8902 3.28823 11.1324 3.61841 11.5784 3.69979C12.0098 3.77855 12.4667 3.52504 12.5735 3.08115C12.6772 2.65812 12.4537 2.19805 12.4402 1.77346C12.4402 1.71452 12.4719 1.45267 12.4314 1.40833C12.4014 1.37495 12.1504 1.4125 12.112 1.41354C11.8309 1.42189 11.5505 1.44136 11.2708 1.47197C10.2512 1.58297 9.25268 1.84031 8.30562 2.23613C8.43163 2.32376 8.5898 2.35871 8.73344 2.40409ZM17.6499 5.33453C18.0902 5.33453 18.5372 5.13632 18.3951 4.62409C18.2758 4.1948 18.0725 3.729 17.5778 3.96059C17.263 4.10769 16.817 4.48221 16.7802 4.8536C16.7382 5.27507 17.3564 5.33453 17.6499 5.33453ZM17.2983 7.57591C17.7479 7.84663 18.4148 7.71936 18.7539 7.33284C19.0189 7.0303 19.175 6.50504 19.6516 6.50556C19.8614 6.50512 20.063 6.58775 20.2127 6.73559C20.4098 6.94058 20.3709 7.13306 20.4129 7.3897C20.5067 7.96608 21.1213 7.42256 21.2815 7.19931C21.3852 7.05378 21.5257 6.83783 21.4786 6.64848C21.435 6.47165 21.2296 6.28335 21.1384 6.12113C20.8718 5.65167 20.6525 5.10554 20.2532 4.72633C19.8689 4.36119 19.3965 4.40345 19.0319 4.78266C18.7332 5.09563 18.3863 5.3434 18.1819 5.72418C18.0378 5.99177 17.8755 6.11956 17.5835 6.18894C17.4227 6.22701 17.2392 6.2411 17.1043 6.34959C16.7289 6.64691 16.9425 7.36101 17.2983 7.57591Z" fill="#CDA274"/>
</svg>
